<?xml version="1.0" standalone="no"?><svg xmlns="http://www.w3.org/2000/svg" viewBox="0 0 1440 320"><path fill="#7342d6" fill-opacity="1" d="M0,96L8,133.3C16,171,32,245,48,245.3C64,245,80,171,96,133.3C112,96,128,96,144,90.7C160,85,176,75,192,85.3C208,96,224,128,240,144C256,160,272,160,288,165.3C304,171,320,181,336,197.3C352,213,368,235,384,234.7C400,235,416,213,432,186.7C448,160,464,128,480,128C496,128,512,160,528,197.3C544,235,560,277,576,272C592,267,608,213,624,186.7C640,160,656,160,672,170.7C688,181,704,203,720,192C736,181,752,139,768,112C784,85,800,75,816,90.7C832,107,848,149,864,186.7C880,224,896,256,912,240C928,224,944,160,960,117.3C976,75,992,53,1008,74.7C1024,96,1040,160,1056,165.3C1072,171,1088,117,1104,85.3C1120,53,1136,43,1152,42.7C1168,43,1184,53,1200,58.7C1216,64,1232,64,1248,74.7C1264,85,1280,107,1296,101.3C1312,96,1328,64,1344,90.7C1360,117,1376,203,1392,202.7C1408,203,1424,117,1432,74.7L1440,32L1440,320L1432,320C1424,320,1408,320,1392,320C1376,320,1360,320,1344,320C1328,320,1312,320,1296,320C1280,320,1264,320,1248,320C1232,320,1216,320,1200,320C1184,320,1168,320,1152,320C1136,320,1120,320,1104,320C1088,320,1072,320,1056,320C1040,320,1024,320,1008,320C992,320,976,320,960,320C944,320,928,320,912,320C896,320,880,320,864,320C848,320,832,320,816,320C800,320,784,320,768,320C752,320,736,320,720,320C704,320,688,320,672,320C656,320,640,320,624,320C608,320,592,320,576,320C560,320,544,320,528,320C512,320,496,320,480,320C464,320,448,320,432,320C416,320,400,320,384,320C368,320,352,320,336,320C320,320,304,320,288,320C272,320,256,320,240,320C224,320,208,320,192,320C176,320,160,320,144,320C128,320,112,320,96,320C80,320,64,320,48,320C32,320,16,320,8,320L0,320Z"></path></svg>